# xmcd
#
# Track frame offsets:
#	150
#	23052
#	41839
#	55646
#	74531
#	90448
#	106694
#	126400
#	144374
#	161653
#	178936
#	188158
#	196667
#	222070
#	246602
#	266923
#
# Disc length: 3824 seconds
#
# Revision: 1
# Processed by: cddbd v1.4PL0 Copyright (c) Steve Scherf et al.
# Submitted via: dBpowerAMP V4.0
#
DISCID=e80eee10
DTITLE=alicia keys - songs in a minor
DYEAR=1900
DGENRE=Blues
TTITLE0=piano and i
TTITLE1=girlfriend
TTITLE2=how come you don't call me
TTITLE3=fallin
TTITLE4=troubles
TTITLE5=rock with you
TTITLE6=a woman's worth
TTITLE7=goodbye
TTITLE8=a live
TTITLE9=mr man
TTITLE10=never felt this way
TTITLE11=butterfly
TTITLE12=why did i feel so bad
TTITLE13=cage bird
TTITLE14=lovin u
TTITLE15=fallin remix
EXTD=
EXTT0=
EXTT1=
EXTT2=
EXTT3=
EXTT4=
EXTT5=
EXTT6=
EXTT7=
EXTT8=
EXTT9=
EXTT10=
EXTT11=
EXTT12=
EXTT13=
EXTT14=
EXTT15=
PLAYORDER=
